<svg data-v-fde0c5aa="" xmlns="http://www.w3.org/2000/svg" viewBox="0 0 300 300" class="iconLeft"><!----><defs data-v-fde0c5aa=""><!----></defs><rect data-v-fde0c5aa="" fill="transparent" x="0" y="0" width="300px" height="300px" class="logo-background-square"></rect><defs data-v-fde0c5aa=""><!----></defs><g data-v-fde0c5aa="" id="d702a76d-9ac9-4df2-aa6b-a4579eb6384e" fill="#000000" transform="matrix(2.8828416724180195,0,0,2.8828416724180195,96.97530381997173,125.85620030617608)"><path d="M0.39 12.56C1.06 13.20 2.04 13.57 3.07 13.57C4.38 13.57 5.60 12.96 5.60 11.61C5.60 9.03 1.34 10.00 1.34 8.04C1.34 7.17 2.14 6.78 3.16 6.78C3.86 6.78 4.51 6.97 5.01 7.29L5.26 6.82C4.69 6.47 3.99 6.24 3.18 6.24C1.89 6.24 0.78 6.80 0.78 8.08C0.78 10.58 5.10 9.65 5.04 11.70C5.00 12.63 4.12 13.03 3.09 13.03C2.17 13.03 1.29 12.70 0.66 12.11ZM6.23 6.26L8.99 13.55L9.59 13.55L12.04 7.03L14.46 13.55L15.06 13.55L17.82 6.26L17.21 6.26L14.78 12.92L12.35 6.26L11.72 6.26L9.30 12.92L6.86 6.26ZM18.62 11.42C18.62 12.66 19.59 13.57 21.03 13.57C22.29 13.57 23.32 13.12 23.94 12.11L23.95 13.55L24.53 13.55L24.50 8.71C24.49 7.20 23.55 6.24 21.83 6.24C20.72 6.24 19.88 6.65 19.01 7.28L19.29 7.73C20.06 7.14 20.83 6.78 21.74 6.78C23.20 6.78 23.91 7.52 23.93 8.75L23.93 9.46L21.34 9.46C19.66 9.46 18.62 10.21 18.62 11.42ZM19.18 11.41C19.18 10.47 19.96 9.98 21.39 9.98L23.94 9.98L23.94 11.17C23.49 12.45 22.47 13.03 21.11 13.03C19.92 13.03 19.18 12.38 19.18 11.41ZM26.56 11.42C26.56 12.66 27.52 13.57 28.97 13.57C30.23 13.57 31.26 13.12 31.88 12.11L31.89 13.55L32.47 13.55L32.44 8.71C32.42 7.20 31.49 6.24 29.76 6.24C28.66 6.24 27.82 6.65 26.95 7.28L27.23 7.73C28 7.14 28.77 6.78 29.68 6.78C31.14 6.78 31.85 7.52 31.86 8.75L31.86 9.46L29.27 9.46C27.59 9.46 26.56 10.21 26.56 11.42ZM27.12 11.41C27.12 10.47 27.90 9.98 29.33 9.98L31.88 9.98L31.88 11.17C31.43 12.45 30.41 13.03 29.05 13.03C27.86 13.03 27.12 12.38 27.12 11.41ZM34.36 9.91C34.36 12.05 35.84 13.59 37.91 13.59C39.34 13.59 40.47 12.85 41.02 11.65L41.02 13.55L41.61 13.55L41.61 3.16L41.02 3.16L41.02 8.16C40.47 6.96 39.34 6.22 37.90 6.22C35.84 6.22 34.36 7.76 34.36 9.91ZM34.93 9.91C34.94 8.11 36.22 6.78 37.98 6.78C39.75 6.78 41.02 8.09 41.02 9.91C41.02 11.73 39.75 13.05 37.98 13.05C36.20 13.05 34.94 11.73 34.93 9.91ZM44.59 13.55L45.16 13.55L45.16 9.98C45.16 8.08 46.20 6.87 47.95 6.83C49.41 6.83 50.29 7.71 50.29 9.21L50.29 13.55L50.86 13.55L50.86 9.98C50.86 8.08 51.88 6.87 53.63 6.83C55.10 6.83 55.97 7.71 55.97 9.21L55.97 13.55L56.55 13.55L56.55 9.10C56.55 7.32 55.52 6.24 53.77 6.24C52.28 6.27 51.24 7.00 50.79 8.36C50.54 7.03 49.57 6.24 48.10 6.24C46.66 6.27 45.64 6.93 45.16 8.18L45.16 6.26L44.59 6.26Z"></path></g><defs data-v-fde0c5aa=""><linearGradient data-v-fde0c5aa="" gradientTransform="rotate(25)" id="4693421c-40b0-4346-82c6-d2b4aaf2f3da" x1="0%" y1="0%" x2="100%" y2="0%"><stop data-v-fde0c5aa="" offset="0%" stop-color="#1E0B36" stop-opacity="1"></stop><stop data-v-fde0c5aa="" offset="100%" stop-color="#CA3782" stop-opacity="1"></stop></linearGradient></defs><g data-v-fde0c5aa="" id="df7aacbf-41b6-4cf5-a605-48e6aded624d" stroke="none" fill="url(#4693421c-40b0-4346-82c6-d2b4aaf2f3da)" transform="matrix(3.043939940625346,0,0,3.043939940625346,36.779511275749066,124.22848199629493)"><path style="line-height:normal;font-variant-ligatures:normal;font-variant-position:normal;font-variant-caps:normal;font-variant-numeric:normal;font-variant-alternates:normal;font-feature-settings:normal;text-indent:0;text-align:start;text-decoration-line:none;text-decoration-style:solid;text-decoration-color:#000;text-transform:none;text-orientation:mixed;shape-padding:0;isolation:auto;mix-blend-mode:normal" d="M5.908 1.058a.621.621 0 0 0-.617.617v1.41a.6.6 0 0 0 .008.09H1.587a.53.53 0 0 0-.529.524V15.35c0 .29.244.524.53.524h7.408c.285 0 .529-.235.529-.524V3.7a.53.53 0 0 0-.53-.523h-.009c.005-.03.01-.06.01-.09v-1.41a.622.622 0 0 0-.618-.618zm0 .53h2.47c.054 0 .088.034.088.087v1.41c0 .054-.034.09-.088.09h-2.47c-.054 0-.088-.036-.088-.09v-1.41c0-.053.034-.087.088-.087zm.437.259a.265.265 0 0 0-.26.27v.529c.008.345.522.345.53 0v-.53a.265.265 0 0 0-.27-.27zm.795 0a.265.265 0 0 0-.262.27v.529c0 .353.53.353.53 0v-.53a.265.265 0 0 0-.268-.27zm.793 0a.265.265 0 0 0-.262.27v.529c.008.345.522.345.53 0v-.53a.265.265 0 0 0-.268-.27zM1.587 3.705h7.409v2.38H1.587zm11.377 2.644c-.747 0-1.425.06-1.931.16-.253.05-.462.11-.63.19a.761.761 0 0 0-.226.152.42.42 0 0 0-.123.311l.53 7.938a.561.561 0 0 0 .237.4 1.4 1.4 0 0 0 .471.211c.384.107.925.164 1.672.164.748 0 1.289-.057 1.672-.164a1.4 1.4 0 0 0 .47-.211.561.561 0 0 0 .24-.4l.528-7.938a.42.42 0 0 0-.123-.31.761.761 0 0 0-.227-.153 2.704 2.704 0 0 0-.628-.19c-.507-.1-1.184-.16-1.932-.16zm-11.377.266h7.409v7.143H1.587zm11.377.263c.719 0 1.373.06 1.828.151.228.046.406.1.504.146.028.014.03.02.043.028l-.101 1.519c-1.17-.04-1.778-.264-2.373-.502-.6-.24-1.208-.495-2.246-.538l-.032-.48c.013-.008.015-.013.043-.027.098-.046.278-.1.506-.146.455-.09 1.11-.15 1.828-.15zm-9.266.23a.265.265 0 0 0-.259.269c0 .46.17.882.448 1.207-.07.082-.133.17-.189.264a1.407 1.407 0 0 0-.542-.276 1.248 1.248 0 0 0-.746.035 1.032 1.032 0 0 0-.276.147.45.45 0 0 0-.191.26.448.448 0 0 0 .035.32c.038.09.094.179.166.264.143.17.354.33.629.404.233.062.46.068.666.02v.825c0 .271.061.53.166.762a1.042 1.042 0 0 0-.166.56c0 .582.477 1.06 1.058 1.06h1.588c.582 0 1.06-.478 1.06-1.06 0-.206-.063-.397-.167-.56.105-.233.166-.49.166-.762v-.825c.205.048.433.042.666-.02a1.25 1.25 0 0 0 .629-.404c.071-.085.128-.173.166-.264a.448.448 0 0 0 .035-.32.45.45 0 0 0-.192-.26 1.032 1.032 0 0 0-.275-.147 1.254 1.254 0 0 0-.748-.035 1.396 1.396 0 0 0-.54.276 1.86 1.86 0 0 0-.19-.264c.278-.325.45-.747.45-1.207a.265.265 0 1 0-.53 0c0 .33-.12.629-.318.86a1.842 1.842 0 0 0-2.012-.002 1.315 1.315 0 0 1-.317-.858.265.265 0 0 0-.27-.268zm6.956 1.102c.923.044 1.416.263 2.013.502.603.241 1.309.491 2.535.538l-.386 5.804a.162.162 0 0 1-.026.022.983.983 0 0 1-.297.125c-.303.085-.81.145-1.529.145-.718 0-1.226-.06-1.53-.145a.983.983 0 0 1-.296-.125c-.02-.015-.025-.02-.028-.023zm-5.363.256c.644 0 1.172.447 1.296 1.051l.003.018c.016.082.024.167.024.254v1.058c0 .134-.02.262-.057.383a1.044 1.044 0 0 0-.472-.117H4.497c-.17 0-.329.045-.471.117a1.336 1.336 0 0 1-.058-.383V9.79c0-.738.585-1.323 1.323-1.323zm-2.497.596c.073-.005.15 0 .225.02.17.046.31.13.385.209.073.075.075.117.072.13v.004c-.004.012-.026.05-.129.079a.87.87 0 0 1-.438-.012.749.749 0 0 1-.36-.236c-.032-.038-.048-.07-.063-.098a.494.494 0 0 1 .103-.053.777.777 0 0 1 .205-.043zm4.996 0a.777.777 0 0 1 .204.043.489.489 0 0 1 .103.053c-.015.029-.03.06-.062.098a.749.749 0 0 1-.362.236.87.87 0 0 1-.437.012c-.104-.03-.126-.069-.129-.08v-.001c-.003-.012-.002-.055.072-.132a.87.87 0 0 1 .385-.21.684.684 0 0 1 .226-.019zm-3.028.463a.265.265 0 1 0 0 .529.265.265 0 0 0 0-.53zm1.058 0a.265.265 0 1 0 0 .529.265.265 0 0 0 0-.53zm8.44.257a.26.26 0 1 0 0 .519.26.26 0 0 0 0-.519zm-1.236.613a.353.353 0 1 0 0 .706.353.353 0 0 0 0-.706zm.883.882a.53.53 0 1 0 0 1.06.53.53 0 0 0 0-1.06zm-9.41.366h1.588c.148 0 .279.056.373.149a.523.523 0 0 1 .156.378c0 .297-.23.529-.529.529H4.497a.522.522 0 0 1-.529-.53.53.53 0 0 1 .089-.296.265.265 0 0 0 .097-.105.528.528 0 0 1 .343-.125zm.265.263a.265.265 0 1 0 0 .53.265.265 0 0 0 0-.53zm1.058 0a.265.265 0 1 0 0 .53.265.265 0 0 0 0-.53zm-4.233 2.38h7.409v1.06H1.587z" color="#000" font-weight="400" font-family="sans-serif" white-space="normal" overflow="visible"></path></g><!----></svg>