<svg data-v-fde0c5aa="" xmlns="http://www.w3.org/2000/svg" viewBox="0 0 300 300" class="font"><!----><defs data-v-fde0c5aa=""><!----></defs><rect data-v-fde0c5aa="" fill="transparent" x="0" y="0" width="300px" height="300px" class="logo-background-square"></rect><defs data-v-fde0c5aa=""><linearGradient data-v-fde0c5aa="" gradientTransform="rotate(25)" id="8e9ca35d-ab62-4955-a673-77b9b87b84da" x1="0%" y1="0%" x2="100%" y2="0%"><stop data-v-fde0c5aa="" offset="0%" stop-color="#1E0B36" stop-opacity="1"></stop><stop data-v-fde0c5aa="" offset="100%" stop-color="#CA3782" stop-opacity="1"></stop></linearGradient></defs><g data-v-fde0c5aa="" id="3466fe8d-632c-412b-959e-3e00eb605b7a" fill="url(#8e9ca35d-ab62-4955-a673-77b9b87b84da)" transform="matrix(3.9173789280225177,0,0,3.9173789280225177,38.472222157362786,117.19195054383549)"><path d="M0.39 12.56C1.06 13.20 2.04 13.57 3.07 13.57C4.38 13.57 5.60 12.96 5.60 11.61C5.60 9.03 1.34 10.00 1.34 8.04C1.34 7.17 2.14 6.78 3.16 6.78C3.86 6.78 4.51 6.97 5.01 7.29L5.26 6.82C4.69 6.47 3.99 6.24 3.18 6.24C1.89 6.24 0.78 6.80 0.78 8.08C0.78 10.58 5.10 9.65 5.04 11.70C5.00 12.63 4.12 13.03 3.09 13.03C2.17 13.03 1.29 12.70 0.66 12.11ZM6.23 6.26L8.99 13.55L9.59 13.55L12.04 7.03L14.46 13.55L15.06 13.55L17.82 6.26L17.21 6.26L14.78 12.92L12.35 6.26L11.72 6.26L9.30 12.92L6.86 6.26ZM18.62 11.42C18.62 12.66 19.59 13.57 21.03 13.57C22.29 13.57 23.32 13.12 23.94 12.11L23.95 13.55L24.53 13.55L24.50 8.71C24.49 7.20 23.55 6.24 21.83 6.24C20.72 6.24 19.88 6.65 19.01 7.28L19.29 7.73C20.06 7.14 20.83 6.78 21.74 6.78C23.20 6.78 23.91 7.52 23.93 8.75L23.93 9.46L21.34 9.46C19.66 9.46 18.62 10.21 18.62 11.42ZM19.18 11.41C19.18 10.47 19.96 9.98 21.39 9.98L23.94 9.98L23.94 11.17C23.49 12.45 22.47 13.03 21.11 13.03C19.92 13.03 19.18 12.38 19.18 11.41ZM26.56 11.42C26.56 12.66 27.52 13.57 28.97 13.57C30.23 13.57 31.26 13.12 31.88 12.11L31.89 13.55L32.47 13.55L32.44 8.71C32.42 7.20 31.49 6.24 29.76 6.24C28.66 6.24 27.82 6.65 26.95 7.28L27.23 7.73C28 7.14 28.77 6.78 29.68 6.78C31.14 6.78 31.85 7.52 31.86 8.75L31.86 9.46L29.27 9.46C27.59 9.46 26.56 10.21 26.56 11.42ZM27.12 11.41C27.12 10.47 27.90 9.98 29.33 9.98L31.88 9.98L31.88 11.17C31.43 12.45 30.41 13.03 29.05 13.03C27.86 13.03 27.12 12.38 27.12 11.41ZM34.36 9.91C34.36 12.05 35.84 13.59 37.91 13.59C39.34 13.59 40.47 12.85 41.02 11.65L41.02 13.55L41.61 13.55L41.61 3.16L41.02 3.16L41.02 8.16C40.47 6.96 39.34 6.22 37.90 6.22C35.84 6.22 34.36 7.76 34.36 9.91ZM34.93 9.91C34.94 8.11 36.22 6.78 37.98 6.78C39.75 6.78 41.02 8.09 41.02 9.91C41.02 11.73 39.75 13.05 37.98 13.05C36.20 13.05 34.94 11.73 34.93 9.91ZM44.59 13.55L45.16 13.55L45.16 9.98C45.16 8.08 46.20 6.87 47.95 6.83C49.41 6.83 50.29 7.71 50.29 9.21L50.29 13.55L50.86 13.55L50.86 9.98C50.86 8.08 51.88 6.87 53.63 6.83C55.10 6.83 55.97 7.71 55.97 9.21L55.97 13.55L56.55 13.55L56.55 9.10C56.55 7.32 55.52 6.24 53.77 6.24C52.28 6.27 51.24 7.00 50.79 8.36C50.54 7.03 49.57 6.24 48.10 6.24C46.66 6.27 45.64 6.93 45.16 8.18L45.16 6.26L44.59 6.26Z"></path></g><!----><!----></svg>